<?xml version="1.0" standalone="no"?>
<svg xmlns:xlink="http://www.w3.org/1999/xlink" id="wave" style="transform:rotate(180deg); transition: 0.3s" viewBox="0 0 1440 100" version="1.1" xmlns="http://www.w3.org/2000/svg"><defs><linearGradient id="sw-gradient-0" x1="0" x2="0" y1="1" y2="0"><stop stop-color="rgba(255, 249, 234, 1)" offset="0%"/><stop stop-color="rgba(255, 249, 234, 1)" offset="100%"/></linearGradient></defs><path style="transform:translate(0, 0px); opacity:1" fill="url(#sw-gradient-0)" d="M0,30L26.7,30C53.3,30,107,30,160,26.7C213.3,23,267,17,320,26.7C373.3,37,427,63,480,68.3C533.3,73,587,57,640,46.7C693.3,37,747,33,800,40C853.3,47,907,63,960,73.3C1013.3,83,1067,87,1120,81.7C1173.3,77,1227,63,1280,61.7C1333.3,60,1387,70,1440,70C1493.3,70,1547,60,1600,58.3C1653.3,57,1707,63,1760,68.3C1813.3,73,1867,77,1920,65C1973.3,53,2027,27,2080,28.3C2133.3,30,2187,60,2240,71.7C2293.3,83,2347,77,2400,68.3C2453.3,60,2507,50,2560,51.7C2613.3,53,2667,67,2720,61.7C2773.3,57,2827,33,2880,28.3C2933.3,23,2987,37,3040,43.3C3093.3,50,3147,50,3200,45C3253.3,40,3307,30,3360,25C3413.3,20,3467,20,3520,16.7C3573.3,13,3627,7,3680,3.3C3733.3,0,3787,0,3813,0L3840,0L3840,100L3813.3,100C3786.7,100,3733,100,3680,100C3626.7,100,3573,100,3520,100C3466.7,100,3413,100,3360,100C3306.7,100,3253,100,3200,100C3146.7,100,3093,100,3040,100C2986.7,100,2933,100,2880,100C2826.7,100,2773,100,2720,100C2666.7,100,2613,100,2560,100C2506.7,100,2453,100,2400,100C2346.7,100,2293,100,2240,100C2186.7,100,2133,100,2080,100C2026.7,100,1973,100,1920,100C1866.7,100,1813,100,1760,100C1706.7,100,1653,100,1600,100C1546.7,100,1493,100,1440,100C1386.7,100,1333,100,1280,100C1226.7,100,1173,100,1120,100C1066.7,100,1013,100,960,100C906.7,100,853,100,800,100C746.7,100,693,100,640,100C586.7,100,533,100,480,100C426.7,100,373,100,320,100C266.7,100,213,100,160,100C106.7,100,53,100,27,100L0,100Z"/></svg>